<svg xmlns="http://www.w3.org/2000/svg" xmlns:xlink="http://www.w3.org/1999/xlink" version="1.1" id="Layer_1" x="0px" y="0px" width="100px" height="100px" viewBox="0 0 100 100" enable-background="new 0 0 100 100" xml:space="preserve">
<path d="M95,31.381c0-8.972-8.124-17.455-16.718-17.455c-8.553,0-14.472,7.938-15.176,15.877c-0.786-0.264-1.624-0.413-2.498-0.413  c-4.347,0-7.882,3.536-7.882,7.881c0,4.623,1.836,8.257,3.312,11.177c0.64,1.267,1.208,2.405,1.566,3.453  c-1.238,1.235-2.006,2.941-2.006,4.823v4.907c0,2.157,1.011,4.08,2.58,5.33v11.936c0,4.259-3.466,7.724-7.725,7.724  s-7.724-3.465-7.724-7.724V66.089c1.038-1.196,1.671-2.752,1.671-4.457v-4.907c0-1.882-0.768-3.588-2.006-4.823  c0.358-1.048,0.927-2.187,1.566-3.453c1.476-2.92,3.312-6.555,3.312-11.177c0-4.346-3.535-7.881-7.882-7.881  c-0.874,0-1.712,0.149-2.498,0.413c-0.704-7.94-6.623-15.877-15.176-15.877C13.124,13.926,5,22.409,5,31.381  c0,0.041,0.001,0.083,0.003,0.124c0.121,2.663,0.872,15.435,4.261,21.111c-0.868,1.145-1.392,2.565-1.392,4.11v4.907  c0,3.758,3.058,6.815,6.815,6.815h22.591v10.45c0,7.265,5.911,13.176,13.176,13.176c7.266,0,13.177-5.911,13.177-13.176v-10.45  h21.682c3.758,0,6.815-3.057,6.815-6.815v-4.907c0-1.544-0.523-2.965-1.392-4.11c3.389-5.677,4.14-18.448,4.261-21.111  C94.999,31.463,95,31.422,95,31.381z M18.141,55.363h1.271v7.633h-1.271V55.363z M23.047,55.363h1.272v7.633h-1.272V55.363z   M27.954,55.363h1.272v7.633h-1.272V55.363z M32.861,55.363h1.272v7.633h-1.272V55.363z M37.769,55.381  c0.664,0.09,1.181,0.655,1.181,1.345v4.907c0,0.689-0.517,1.254-1.181,1.344V55.381z M21.718,19.378  c5.771,0,9.793,6.325,9.793,12.002v6.627c0,1.505,1.221,2.726,2.727,2.726s2.726-1.221,2.726-2.726v-0.736  c0-1.339,1.09-2.429,2.429-2.429c1.341,0,2.43,1.09,2.43,2.429c0,3.324-1.385,6.066-2.725,8.719c-0.669,1.323-1.312,2.6-1.785,3.92  H14.688c-0.224,0-0.444,0.012-0.663,0.034c-2-2.947-3.285-12.489-3.572-18.623C10.488,25.285,16.051,19.378,21.718,19.378z   M13.324,61.633v-4.907c0-0.689,0.517-1.254,1.182-1.345v7.596C13.841,62.887,13.324,62.322,13.324,61.633z M61.051,61.633v-4.907  c0-0.689,0.517-1.254,1.181-1.345v7.596C61.567,62.887,61.051,62.322,61.051,61.633z M65.867,55.363h1.271v7.633h-1.271V55.363z   M70.773,55.363h1.272v7.633h-1.272V55.363z M75.681,55.363h1.272v7.633h-1.272V55.363z M80.588,55.363h1.271v7.633h-1.271V55.363z   M60.608,34.843c1.339,0,2.429,1.09,2.429,2.429v0.736c0,1.505,1.22,2.726,2.726,2.726s2.727-1.221,2.727-2.726v-6.627  c0-5.677,4.021-12.002,9.793-12.002c5.667,0,11.229,5.906,11.266,11.943c-0.287,6.133-1.572,15.676-3.572,18.623  c-0.219-0.021-0.439-0.034-0.663-0.034H62.688c-0.474-1.32-1.116-2.597-1.785-3.92c-1.34-2.652-2.725-5.395-2.725-8.719  C58.179,35.933,59.268,34.843,60.608,34.843z M86.676,61.633c0,0.689-0.517,1.254-1.182,1.344v-7.596  c0.665,0.09,1.182,0.655,1.182,1.345V61.633z"/>
</svg>